<?xml version="1.0" encoding="utf-16"?>
<svg xmlns="http://www.w3.org/2000/svg" width="252.55" height="39.49">
  <g fill="#b00">
    <path d="M27.6 26.2c0-2.92-1.11-3.45-3.68-3.5-1.82-.06-2.28-.3-2.28-.88 0-.76.29-.76 2.63-.76 1 0 2.63.23 6.54.23.94 0 6.55-.23 7.43-.23.23 0 .93 0 .93.7 0 .64-.58.81-2.16.93-2.8.18-2.92 1.11-2.92 3.63v.58c0 .58.17 2.57.17 5.9 0 2.63 0 2.8-1.7 3.68a25.59 25.59 0 01-12.4 2.98C3.8 39.46 0 26.78 0 21.11c0-8.6 7.2-19 22.74-19 5.44 0 8.89 1.4 9.3 1.8.7.7 1.23 5.39 1.23 5.91 0 .76-.35 1.06-.7 1.06-.53 0-1-.53-1.4-1.35a10.08 10.08 0 00-9.65-5.9c-9 0-14.15 9.82-14.15 17.71C7.37 29.88 12.75 38 21.52 38c5.38 0 6.08-1.87 6.08-6.72z" />
    <path d="M54.07 39.47A13.75 13.75 0 1153.84 12c6.66 0 14.09 4.39 14.09 13.22 0 7.77-5.73 14.26-13.86 14.26m-.17-1.34c4.26 0 7.95-5.44 7.95-12.34 0-4.03-2.1-12.45-8.48-12.45-4.2 0-7.66 4.2-7.66 11.34 0 7.25 3.57 13.45 8.19 13.45" />
    <path d="M84.47 39.47A13.75 13.75 0 1184.23 12c6.67 0 14.1 4.39 14.1 13.22 0 7.77-5.74 14.26-13.86 14.26m-.18-1.34c4.27 0 7.95-5.44 7.95-12.34 0-4.03-2.1-12.45-8.47-12.45-4.21 0-7.66 4.2-7.66 11.34 0 7.25 3.56 13.45 8.18 13.45" />
    <path d="M126.32 33.92c0 1.7.4 2.04.88 2.04.4 0 1.93-1.52 2.4-1.52.35 0 .35.53.35.7 0 1.52-.12 1.58-3.98 2.87a37.6 37.6 0 01-3.97 1.46c-.47 0-.82-.12-1-2.28 0-.35-.11-.88-.52-.88a1.8 1.8 0 00-.82.41 10.2 10.2 0 01-6.9 2.75c-6.6 0-12.34-5.26-12.34-13.1a14.3 14.3 0 0114.15-14.38 13.52 13.52 0 014.97 1 2.42 2.42 0 00.7.23.45.45 0 00.41-.47v-6.2c0-1.76-.3-2.28-2.16-2.4-.3-.06-1.06-.18-1.06-.7 0-.64.88-.88 1.06-.94a24.18 24.18 0 006.66-2.28 1.37 1.37 0 01.7-.23c.7 0 .7.88.7 1.11 0 .82-.23 4.74-.23 5.61zm-5.44-12.8c0-2.63 0-7.9-5.9-7.9-4.04 0-8.36 3.75-8.36 11.4 0 6.61 3.56 11.58 9.35 11.58 4.91 0 4.91-2.28 4.91-3.33z" />
    <path d="M166.95 20.88c0-1.7 0-5.67-4.91-5.67A7.1 7.1 0 00157 17.2a4.66 4.66 0 00-.88 3.33V33.1c0 3.27 0 3.97 2.4 4.32 1.46.18 1.76.47 1.76 1 0 .7-.59.7-1 .7-.94 0-2.8-.23-5.97-.23-3.21 0-5.08.23-6.02.23-.46 0-1 0-1-.76 0-.53.42-.76 1.76-.94 2.4-.35 2.4-.99 2.4-4.32V21.7c0-2.98-.81-6.26-4.85-6.26-2.63 0-3.92.76-5.03 1.99a4.48 4.48 0 00-.93 3.27v12.4c0 3.27 0 3.97 2.4 4.33 1.46.17 1.75.46 1.75.99 0 .7-.58.7-1.1.7-.77 0-2.93-.23-5.9-.23-2.7 0-5.1.23-6.03.23-.47 0-1.11 0-1.11-.76 0-.53.53-.76 1.81-.93 2.52-.36 2.52-1 2.52-4.27V21.93c0-2.75 0-4.03-1.76-4.15-.93-.06-1.63-.06-1.63-.82 0-.35.23-.58.87-.76a17.23 17.23 0 005.97-3.8c.4-.46.87-1.05 1.28-1.05.53 0 .65.53.65 1.05v2.87c0 1 0 1.17.23 1.17.18 0 .47-.3.82-.65 3.27-3.45 5.38-3.8 8-3.8.7 0 4.33.06 6.2 3.04.83 1.29.94 1.4 1.18 1.4.4 0 1.75-1.46 2.04-1.7A10.29 10.29 0 01164.4 12c7.6 0 8.24 5.2 8.24 7.13v13.97c0 3.27 0 3.98 2.4 4.33 1.47.17 1.76.46 1.76 1 0 .7-.59.7-1 .7-.87 0-2.92-.24-5.96-.24-3.33 0-5.08.23-6.02.23-.4 0-1 0-1-.76 0-.52.47-.76 1.76-.93 2.4-.35 2.4-1 2.4-4.33z" />
    <path d="M191.03 18.25c0-2.05-.17-4.85-2.92-4.85-3.4 0-4.68 3.56-5.15 4.9-.93 2.64-4.32 2.87-4.38 2.87a1.2 1.2 0 01-1.29-1.17c0-1.98 3.69-8 12.57-8 5.5 0 6.84 1.86 6.84 4.26v16.31c0 1.82.18 3.28 1.81 3.28a2.83 2.83 0 001.7-.59c.65-.52.7-.58 1-.58a.56.56 0 01.52.52c0 1.4-3.56 4.15-6.14 4.15-2.28 0-3.39-1.75-4.09-3.15-.52-1.12-.64-1.12-.82-1.12-.11 0-.4.24-.4.24-2.46 1.99-5.62 4.15-8.25 4.15-4.27 0-4.56-4.03-4.56-4.91 0-4.27 3.1-6.78 12.1-10.35 1.4-.58 1.46-1.05 1.46-2.1zm0 7.9c0-.6-.35-.65-.64-.65a10.02 10.02 0 00-3.22 1.23c-3.68 1.75-3.68 3.97-3.68 5.14 0 2.8 1.34 3.86 2.63 3.86 2.63 0 4.91-2.1 4.91-6.2z" />
    <path d="M222.5 22.58c0-2.75 0-7.14-5.74-7.14a6.95 6.95 0 00-4.9 2 4.16 4.16 0 00-1.12 3.27V33.1c0 3.27 0 3.98 2.51 4.33 1.47.17 1.76.46 1.76.99 0 .7-.59.7-1 .7-.88 0-5.02-.23-6.14-.23-.87 0-5.08.23-6.02.23-.47 0-1.05 0-1.05-.76 0-.53.47-.76 1.75-.93 2.52-.35 2.52-1 2.52-4.27V21.93c0-2.75 0-4.03-1.76-4.15-.93-.06-1.57-.06-1.57-.82 0-.35.17-.58.81-.76a17.24 17.24 0 005.97-3.8c.4-.46.87-1.05 1.28-1.05.53 0 .65.53.65 1.05v2.87c0 1 0 1.17.23 1.17a1.18 1.18 0 00.82-.35c3.56-3.34 5.32-4.1 8.6-4.1 3.85 0 8.06 2.1 8.06 7.55V33.1c0 3.27 0 3.98 2.52 4.33 1.46.17 1.75.46 1.75 1 0 .7-.59.7-1 .7-.87 0-5.14-.24-6.08-.24-.87 0-5.14.23-6.13.23-.41 0-1 0-1-.76 0-.52.41-.76 1.76-.93 2.51-.35 2.51-1 2.51-4.27z" />
    <path d="M233.31 31.29c0-.18.06-1.06.82-1.06.64 0 .94.53 1.23 1.64.3 1.05 1.99 6.14 6.72 6.14 2.63 0 5.67-1.75 5.67-4.8 0-3.1-2.69-4.44-6.72-6.02-3.45-1.34-7.6-2.98-7.6-7.19 0-3.33 2.63-8 10.4-8 .88 0 5.2.64 5.68.64 1.46.17 1.46.81 1.46 1.75l-.24 3.45c0 .23-.11.94-.7.94-.4 0-.7-.12-1.05-1.23a6.1 6.1 0 00-5.84-4.21c-2.52 0-4.68 1.4-4.68 3.5 0 2.34 1.28 2.87 7.19 5.33 1.99.87 6.9 2.86 6.9 7.89 0 4.38-3.57 9.41-11.28 9.41a19.62 19.62 0 01-7.37-1.64c-.7-.35-.7-.81-.7-2.22z" />
    <path d="M234.11 3.23c0-.64.06-.91-.61-1.03-.13-.02-.34-.03-.34-.21s.1-.2.25-.2c.55 0 1.08.04 1.63.04.5 0 1.01-.04 1.5-.04.16 0 .27.03.27.2s-.17.19-.3.21c-.72.12-.66.33-.66 1.03V7c0 .56.08.97.84.97 1.53 0 1.55-1.28 1.97-1.28.17 0 .2.1.2.24 0 .41-.13.84-.16 1.27-.02.3-.14.22-.4.22-.8 0-1.6-.05-2.4-.05-.83 0-1.67.05-2.5.05-.14 0-.25-.03-.25-.18 0-.16.16-.25.29-.27.7-.11.66-.28.66-.97z" />
    <path d="M240.23 3.23c0-.64.06-.91-.61-1.03-.13-.02-.34-.03-.34-.21s.1-.2.25-.2c.55 0 1.08.04 1.63.04.5 0 1.01-.04 1.5-.04.15 0 .27.03.27.2s-.17.19-.3.21c-.72.12-.66.33-.66 1.03V7c0 .56.08.97.84.97 1.53 0 1.55-1.28 1.97-1.28.17 0 .2.1.2.24 0 .41-.13.84-.16 1.27-.02.3-.14.22-.4.22-.8 0-1.6-.05-2.4-.05-.82 0-1.67.05-2.5.05-.14 0-.25-.03-.25-.18 0-.16.16-.25.3-.27.7-.11.66-.28.66-.97z" />
    <path d="M246.34 3.22c0-.62.07-.92-.6-1.02-.14-.02-.34-.01-.34-.19s.1-.22.26-.22c.44 0 .9.04 1.35.04.76 0 1.52-.04 2.27-.04a2.78 2.78 0 011.59.35 1.7 1.7 0 01.82 1.5 2.18 2.18 0 01-.56 1.4 1.99 1.99 0 01-1.53.63 2.63 2.63 0 01-.81-.14 2.93 2.93 0 00-.58-.14c-.2 0-.13.14-.13.28v1.31c0 .62-.04.88.63.98.13.02.33.06.33.25 0 .15-.11.2-.25.2-.55 0-1.08-.05-1.62-.05-.51 0-1.02.05-1.52.05-.15 0-.26-.05-.26-.2 0-.16.16-.23.29-.25.7-.11.66-.3.66-.98zm1.74 1.32c0 .13-.01.33.06.38a1.09 1.09 0 00.59.15c.83 0 1.19-.7 1.19-1.46a1.33 1.33 0 00-1.25-1.41c-.25 0-.48.07-.55.32a3.75 3.75 0 00-.04.9z" />
  </g>
</svg>